<?xml version="1.0" standalone="no"?>
<!DOCTYPE svg PUBLIC "-//W3C//DTD SVG 20010904//EN"
 "http://www.w3.org/TR/2001/REC-SVG-20010904/DTD/svg10.dtd">
<svg version="1.0" xmlns="http://www.w3.org/2000/svg"
 width="70.000000pt" height="70.000000pt" viewBox="0 0 70.000000 70.000000"
 preserveAspectRatio="xMidYMid meet">
<metadata>
Created by potrace 1.11, written by Peter Selinger 2001-2013
</metadata>
<g transform="translate(0.000000,70.000000) scale(0.100000,-0.100000)"
fill="#000000" stroke="none">
<path d="M55 548 c47 -42 59 -71 70 -168 10 -94 33 -189 51 -213 46 -61 50
-62 294 -65 l225 -3 -35 23 c-50 34 -77 79 -85 145 -5 32 -9 65 -10 73 -1 8
-5 40 -9 70 -10 70 -40 125 -86 153 -33 21 -47 22 -247 23 l-212 0 44 -38z
m325 -69 c0 -6 12 -10 28 -9 41 3 49 0 25 -10 -31 -13 -29 -22 10 -44 40 -23
20 -33 -22 -11 -17 8 -31 14 -32 13 -1 -5 -9 -61 -13 -96 -5 -40 -15 -54 -17
-24 -1 12 -3 31 -4 42 -1 11 -3 34 -4 50 l-1 30 -40 -20 c-48 -24 -53 -11 -8
21 31 22 31 23 10 32 -12 6 -22 14 -22 18 0 8 33 4 49 -5 5 -3 11 1 15 9 6 17
26 20 26 4z m-54 -224 c10 -8 14 -15 8 -15 -5 0 -19 7 -30 15 -10 8 -14 15 -8
15 5 0 19 -7 30 -15z m113 2 c-53 -35 -155 -77 -186 -76 -34 0 -25 5 72 44 61
24 112 41 114 39 2 -2 2 -5 0 -7z m51 -65 c24 -10 24 -11 -12 -11 -38 -1 -88
16 -88 30 0 14 24 16 50 4 14 -7 36 -17 50 -23z"/>
</g>
</svg>
