<svg id="GACA_Logo" data-name="GACA Logo" xmlns="http://www.w3.org/2000/svg" width="203" height="70" viewBox="0 0 203 70">
  <defs>
    <style>
      .cls-1 {
        fill: #58595b;
      }

      .cls-1, .cls-2, .cls-3 {
        fill-rule: evenodd;
      }

      .cls-2 {
        fill: #274479;
      }

      .cls-3 {
        fill: #0075c9;
      }
    </style>
  </defs>
  <path class="cls-1" d="M548.91,88.495a0.627,0.627,0,1,0-.633-0.627A0.63,0.63,0,0,0,548.91,88.495Zm2.037,0a0.627,0.627,0,1,0-.633-0.627A0.63,0.63,0,0,0,550.947,88.495Zm34.333,0a0.627,0.627,0,1,0-.633-0.627A0.63,0.63,0,0,0,585.28,88.495Zm2.037,0a0.627,0.627,0,1,0-.632-0.627A0.63,0.63,0,0,0,587.317,88.495Zm12.493,1.5-0.11-.8c-0.446.076-1.471,0.382-1.569-.311a0.692,0.692,0,0,1,.557-0.77,1.551,1.551,0,0,1,.845.143l0.265-.768a1.975,1.975,0,0,0-1.737.117,1.349,1.349,0,0,0-.406,1.765l-0.907.028V90q0.9,0.036,1.8.052C598.642,90.055,599.389,90.033,599.81,89.992Zm-76.274,6.518a0.627,0.627,0,1,0,.633.627A0.631,0.631,0,0,0,523.536,96.509Zm2.038,0a0.627,0.627,0,1,0,.632.627A0.63,0.63,0,0,0,525.574,96.509Zm75.3,0a0.627,0.627,0,1,0,.633.627A0.631,0.631,0,0,0,600.87,96.509Zm2.038,0a0.627,0.627,0,1,0,.633.627A0.63,0.63,0,0,0,602.908,96.509ZM475.652,98a0.627,0.627,0,1,0,.633.627A0.63,0.63,0,0,0,475.652,98Zm2.038,0a0.627,0.627,0,1,0,.633.627A0.63,0.63,0,0,0,477.69,98Zm33.746-7.038a0.627,0.627,0,1,0-.633-0.627A0.63,0.63,0,0,0,511.436,90.967Zm-28.875-1.218a0.627,0.627,0,1,0-.633-0.627A0.63,0.63,0,0,0,482.561,89.749Zm133.053-2.237v7.7h1.092v-7.7h-1.092Zm-36.813,7.7h1.091v-7.7H578.8v7.7Zm-62.763,0h1.092v-7.7h-1.092v7.7Zm96.713-1.579a0.742,0.742,0,0,1-.744.737h-3.042c0.019-.022.039-0.043,0.056-0.066a1.758,1.758,0,0,0,.256-1.632c-0.136-.483-0.553-1.953-1.623-1.98h-0.029c-1.252,0-2.021,2.078-2.164,2.5a8.123,8.123,0,0,0-.3,1.181c-0.472.012-2.7,0-2.7,0a1.78,1.78,0,0,0,.159-0.736V90.994h-1.092v2.639a0.741,0.741,0,0,1-.744.737h-0.667a0.742,0.742,0,0,1-.744-0.737V90.994h-1.091v2.639a0.742,0.742,0,0,1-.744.737h-9.3a0.741,0.741,0,0,1-.743-0.737V89.64H586.4v0.516a11.634,11.634,0,0,0-1.488.553c-1.285.588-2.017,1.279-2.176,2.055a1.134,1.134,0,0,0,.285,1.041,3.083,3.083,0,0,0,2.285.626,10.122,10.122,0,0,0,1.241-.085,1.839,1.839,0,0,0,1.688,1.106h9.3a1.842,1.842,0,0,1,2.579,0h0.667a1.834,1.834,0,0,0,1.259-.5v0.5s2.615,0.011,3.026,0a2.483,2.483,0,0,0,1.5,2.487,2.593,2.593,0,0,0,.973.184,2.248,2.248,0,0,0,2.036-1.072,1.459,1.459,0,0,0-.23-1.6h2.664a1.83,1.83,0,0,0,1.836-1.819V87.512h-1.092v6.122Zm-28.934-.571c-0.012-.013-0.021-0.022-0.008-0.083,0.134-.657,1.461-1.323,2.594-1.692v1.987A4.683,4.683,0,0,1,583.817,93.063ZM606.5,93.534a2.985,2.985,0,0,1,1.126-1.76h0a1.752,1.752,0,0,1,.6,1.191,0.7,0.7,0,0,1-.071.679,2.952,2.952,0,0,1-1.88.656C606.332,94.058,606.405,93.8,606.5,93.534Zm2.1,3.049a1.41,1.41,0,0,1-1.614.359,1.505,1.505,0,0,1-.838-1.537,7.08,7.08,0,0,0,1.7-.33l-0.213.374C608.351,95.855,608.73,96.3,608.591,96.583Zm-105.443-1.37h1.092v-7.7h-1.092v7.7Zm-2.863-1.579a0.741,0.741,0,0,1-.743.737H497.39c0.018-.039.037-0.076,0.053-0.116a3.171,3.171,0,0,0-.161-2.415,2.064,2.064,0,0,0-1.8-1.287h-0.009a2.114,2.114,0,0,0-1.834,1.3,8.733,8.733,0,0,0-.445,1.12c-0.337.985-.476,1.394-1.568,1.394h-1.055A5.429,5.429,0,0,0,487.77,90.4l-0.5.96a4.416,4.416,0,0,1,2.21,3.006h-3.413v1.082h5.566a2.528,2.528,0,0,0,1.682-.5,4,4,0,0,0,2.059.508,3.008,3.008,0,0,0,1.019-.149,1.766,1.766,0,0,0,.179-0.079v0.228h2.974a1.83,1.83,0,0,0,1.835-1.819V87.512h-1.092v6.122Zm-3.857.222a0.73,0.73,0,0,1-.432.438,3.314,3.314,0,0,1-2.047-.228c0.111-.244.2-0.5,0.283-0.746a7.892,7.892,0,0,1,.39-0.989,1.069,1.069,0,0,1,.855-0.7h0a1,1,0,0,1,.818.673A2.108,2.108,0,0,1,496.428,93.856Zm64.012-3.3h-0.009a2.114,2.114,0,0,0-1.834,1.3,8.753,8.753,0,0,0-.445,1.12c-0.337.986-.477,1.393-1.568,1.393h-4.451a0.742,0.742,0,0,1-.744-0.737V89.64H550.3v0.516a11.632,11.632,0,0,0-1.487.553c-1.285.588-2.017,1.279-2.176,2.055a1.136,1.136,0,0,0,.284,1.041,3.088,3.088,0,0,0,2.286.626,10.106,10.106,0,0,0,1.24-.085,1.839,1.839,0,0,0,1.689,1.106h4.45a2.525,2.525,0,0,0,1.683-.506,4.254,4.254,0,0,0,3.077.361,1.81,1.81,0,0,0,1.054-1.049,3.171,3.171,0,0,0-.161-2.415A2.065,2.065,0,0,0,560.44,90.556Zm-12.728,2.507c-0.012-.013-0.021-0.022-0.008-0.083,0.134-.657,1.46-1.323,2.593-1.692v1.987A4.678,4.678,0,0,1,547.712,93.063Zm13.67,0.8a0.73,0.73,0,0,1-.432.439,3.321,3.321,0,0,1-2.048-.228c0.112-.244.2-0.5,0.284-0.746a7.764,7.764,0,0,1,.39-0.989,1.066,1.066,0,0,1,.855-0.7h0a1,1,0,0,1,.818.673A2.108,2.108,0,0,1,561.382,93.859Zm-19.1-.226a0.742,0.742,0,0,1-.744.737h-0.667a0.742,0.742,0,0,1-.744-0.737V87.512h-1.092v6.122a0.741,0.741,0,0,1-.743.737h-1.564a4.127,4.127,0,0,0-1.128-3.166c-1.044-.853-2.454-0.315-3.461.3a9.672,9.672,0,0,0-1.625,1.284v-5.28h-1.092v6.859h-4.481a1.8,1.8,0,0,0,.159-0.737V90.994h-1.092v2.639a0.741,0.741,0,0,1-.743.737H520.96a0.741,0.741,0,0,1-.743-0.737V90.994h-1.092V95.2a1.512,1.512,0,0,1-1.517,1.5v1.083a2.6,2.6,0,0,0,2.607-2.492,1.838,1.838,0,0,0,.745.157h2.306a1.836,1.836,0,0,0,1-.3v0.3h14.028a1.842,1.842,0,0,1,2.579,0h0.667a1.83,1.83,0,0,0,1.836-1.819V87.512h-1.092v6.122Zm-11.768.342a10.953,10.953,0,0,1,1.471-1.185,5.055,5.055,0,0,1,1.961-.916,1.182,1.182,0,0,1,.874.139,1.442,1.442,0,0,1,.465.64,5.105,5.105,0,0,1,.331,1.717h-5.1V93.976Zm-46.842-.342a0.742,0.742,0,0,1-.744.737h-0.486a0.772,0.772,0,0,1-.784-0.737V92.192a1.348,1.348,0,0,0-.5-1.087,1.717,1.717,0,0,0-1.453-.262,2.159,2.159,0,0,0-1.753,2.011v2.478a0.685,0.685,0,0,1-.5.57,2.727,2.727,0,0,1-2.707-.517c-0.71-.679-0.806-1.764-0.276-3.135l-1.02-.388c-0.929,2.406-.062,3.728.538,4.3a3.734,3.734,0,0,0,2.574.979,3.438,3.438,0,0,0,1.317-.245,1.7,1.7,0,0,0,1.164-1.566V92.854a1.074,1.074,0,0,1,.9-0.956,0.651,0.651,0,0,1,.529.053,0.265,0.265,0,0,1,.089.241v1.441a1.873,1.873,0,0,0,1.876,1.819h0.486a1.829,1.829,0,0,0,1.835-1.819V90.994h-1.091v2.639Zm29.623,1.7a0.685,0.685,0,0,1-.5.57,2.727,2.727,0,0,1-2.707-.517c-0.71-.68-0.806-1.764-0.276-3.135l-1.02-.388c-0.929,2.406-.062,3.728.538,4.3a3.734,3.734,0,0,0,2.574.979,3.447,3.447,0,0,0,1.318-.245,1.7,1.7,0,0,0,1.163-1.566V90.994H513.3v4.338Zm62.642-1.7a0.741,0.741,0,0,1-.741.737l-0.4,0a11.271,11.271,0,0,1-2.721-.243l0.083-.068c0.235-.2,1.4-1.235,1.208-2.282a1.422,1.422,0,0,0-1.037-1.08l-0.058-.021-0.06-.007a12.783,12.783,0,0,0-2.952-.028l-0.063.007-0.059.021a1.247,1.247,0,0,0-.893.907c-0.207.924,0.772,1.994,1.2,2.411,0.066,0.064.135,0.127,0.209,0.187a8.3,8.3,0,0,1-2.038.2h-1.6a0.741,0.741,0,0,1-.743-0.737V87.512h-1.092v6.122a1.83,1.83,0,0,0,1.835,1.819h1.6a7.435,7.435,0,0,0,3.268-.569,10.343,10.343,0,0,0,3.915.568l0.389,0a1.829,1.829,0,0,0,1.835-1.819V87.512h-1.091v6.122Zm-4.483-.4a5.054,5.054,0,0,1-.607.441,2.931,2.931,0,0,1-.635-0.461,2.48,2.48,0,0,1-.9-1.4,0.238,0.238,0,0,1,.136-0.1,11.665,11.665,0,0,1,2.563.024,0.427,0.427,0,0,1,.282.233A2.014,2.014,0,0,1,571.455,93.232Z" transform="translate(-415 -40)"/>
  <path class="cls-1" d="M472.961,104.436c0-2.173,1.156-3.62,2.909-3.62a2.437,2.437,0,0,1,2.268,1.49l-0.962.44a1.458,1.458,0,0,0-1.306-.9c-1.017,0-1.7,1-1.7,2.59s0.682,2.594,1.7,2.594a1.619,1.619,0,0,0,1.188-.5v-1.3h-1.5v-1.018h2.621v2.78a2.942,2.942,0,0,1-2.311,1.083c-1.753,0-2.909-1.472-2.909-3.634m6.333,0.958c0-1.473.835-2.659,2.216-2.659,1.4,0,2.15,1.165,2.15,2.7v0.3h-3.284a1.361,1.361,0,0,0,1.349,1.458,1.607,1.607,0,0,0,1.163-.544l0.517,0.627a2.373,2.373,0,0,1-4.111-1.887m2.205-1.809a1.3,1.3,0,0,0-1.134,1.407h2.256a1.243,1.243,0,0,0-1.122-1.407m6.195,4.349v-3.456a0.683,0.683,0,0,0-.739-0.818,1.277,1.277,0,0,0-1.049.7v3.57h-1.069v-5.07h1.069v0.678a1.912,1.912,0,0,1,1.5-.807,1.215,1.215,0,0,1,1.356,1.376v3.823h-1.068Zm2.289-2.54c0-1.473.835-2.659,2.213-2.659,1.4,0,2.152,1.165,2.152,2.7v0.3h-3.286a1.364,1.364,0,0,0,1.349,1.458,1.608,1.608,0,0,0,1.165-.544l0.513,0.627a2.37,2.37,0,0,1-4.106-1.887m2.2-1.809a1.293,1.293,0,0,0-1.134,1.407h2.257a1.244,1.244,0,0,0-1.123-1.407m3.338,4.349v-5.07h1.068v0.743a1.75,1.75,0,0,1,1.424-.861v1.04a1.316,1.316,0,0,0-.278-0.029,1.451,1.451,0,0,0-1.146.7v3.476h-1.068Zm6.184,0V107.42a1.689,1.689,0,0,1-1.36.638,1.571,1.571,0,0,1-1.582-1.689,1.53,1.53,0,0,1,1.582-1.647,1.683,1.683,0,0,1,1.36.606v-0.735a0.9,0.9,0,0,0-1.006-.965,1.755,1.755,0,0,0-1.283.579L499,103.471a2.69,2.69,0,0,1,1.892-.736,1.628,1.628,0,0,1,1.873,1.733v3.466h-1.058Zm0-1.158v-0.765a1.138,1.138,0,0,0-.974-0.567,0.946,0.946,0,0,0,0,1.89,1.153,1.153,0,0,0,.974-0.558m2.534-5.846h1.07v7h-1.07v-7Zm8.817,7-0.385-1.387h-2.343l-0.387,1.387h-1.283l2.128-7h1.423l2.128,7H513.06Zm-1.554-5.763-0.93,3.348h1.863Zm6.5,5.763v-0.671a1.882,1.882,0,0,1-1.51.8,1.2,1.2,0,0,1-1.348-1.363v-3.831h1.069v3.466a0.676,0.676,0,0,0,.739.8,1.306,1.306,0,0,0,1.05-.69v-3.58h1.07v5.07H518Zm2.738-1.136v-3.023h-0.674v-0.911h0.674v-1.387h1.069v1.387h0.857v0.911H521.81v2.8c0,0.347.118,0.555,0.4,0.555a0.532,0.532,0,0,0,.407-0.168l0.257,0.79a1.287,1.287,0,0,1-.93.3,1.085,1.085,0,0,1-1.2-1.26m5.916,1.136v-3.476a0.679,0.679,0,0,0-.75-0.8,1.307,1.307,0,0,0-1.047.7v3.57h-1.071v-7h1.071v2.612a1.928,1.928,0,0,1,1.508-.807,1.2,1.2,0,0,1,1.349,1.365v3.834h-1.06Zm2.28-2.54c0-1.43.77-2.659,2.233-2.659s2.237,1.229,2.237,2.659-0.77,2.664-2.237,2.664-2.233-1.239-2.233-2.664m3.368,0c0-.916-0.353-1.734-1.135-1.734s-1.131.818-1.131,1.734,0.352,1.74,1.131,1.74,1.135-.825,1.135-1.74m2.322,2.54v-5.07h1.07v0.743a1.742,1.742,0,0,1,1.423-.861v1.04a1.308,1.308,0,0,0-.28-0.029,1.445,1.445,0,0,0-1.143.7v3.476h-1.07Zm3.37-6.363a0.673,0.673,0,0,1,.674-0.662,0.658,0.658,0,1,1-.674.662m0.137,1.293h1.07v5.07h-1.07v-5.07Zm2.74,3.934v-3.023H540.2v-0.911h0.674v-1.387h1.071v1.387H542.8v0.911h-0.856v2.8c0,0.347.119,0.555,0.4,0.555a0.535,0.535,0,0,0,.406-0.168l0.257,0.79a1.291,1.291,0,0,1-.93.3,1.085,1.085,0,0,1-1.2-1.26m3.027,2.193a0.793,0.793,0,0,0,.343.076,0.552,0.552,0,0,0,.587-0.422l0.216-.606-1.733-5.175h1.135l1.143,3.809,1.157-3.809h1.133l-2.042,6.024a1.417,1.417,0,0,1-1.52,1.1,2.429,2.429,0,0,1-.576-0.071Zm7.062-3.6c0-1.43.771-2.659,2.235-2.659s2.234,1.229,2.234,2.659-0.767,2.664-2.234,2.664-2.235-1.239-2.235-2.664m3.37,0c0-.916-0.354-1.734-1.135-1.734s-1.132.818-1.132,1.734,0.353,1.74,1.132,1.74,1.135-.825,1.135-1.74m2.535,2.54v-4.159H556.2v-0.911h0.673v-0.472a1.4,1.4,0,0,1,1.456-1.569,1.5,1.5,0,0,1,1.038.361l-0.364.733a0.646,0.646,0,0,0-.482-0.21,0.574,0.574,0,0,0-.577.685v0.472h0.855v0.911h-0.855v4.159h-1.071Zm5.2-3.5c0-2.108,1.121-3.62,2.91-3.62a2.409,2.409,0,0,1,2.256,1.544l-0.985.428a1.408,1.408,0,0,0-1.271-.942c-1.05,0-1.7,1.089-1.7,2.59s0.652,2.584,1.7,2.584a1.408,1.408,0,0,0,1.283-1.029l0.983,0.432a2.407,2.407,0,0,1-2.266,1.635c-1.789,0-2.91-1.52-2.91-3.622m6.138-2.865a0.675,0.675,0,0,1,.675-0.662,0.658,0.658,0,1,1,0,1.315,0.671,0.671,0,0,1-.675-0.653m0.141,1.293h1.07v5.07h-1.07v-5.07Zm3.637,5.07-1.7-5.07h1.136l1.143,3.82,1.155-3.82h1.133l-1.71,5.07h-1.156Zm3.584-6.363a0.672,0.672,0,0,1,.674-0.662,0.658,0.658,0,1,1-.674.662m0.141,1.293h1.067v5.07H575.71v-5.07Zm2.544-1.934h1.071v7h-1.071v-7Zm8.816,7-0.386-1.387H584.34l-0.383,1.387h-1.283l2.128-7h1.422l2.129,7H587.07Zm-1.553-5.763-0.929,3.348h1.862Zm4.644,5.763-1.7-5.07h1.133l1.147,3.82,1.153-3.82h1.137l-1.714,5.07h-1.156Zm3.585-6.363a0.675,0.675,0,0,1,.675-0.662,0.658,0.658,0,1,1-.675.662m0.138,1.293h1.071v5.07h-1.071v-5.07Zm5.22,5.07V107.42a1.686,1.686,0,0,1-1.359.638,1.573,1.573,0,0,1-1.583-1.689,1.531,1.531,0,0,1,1.583-1.647,1.682,1.682,0,0,1,1.359.606v-0.735a0.9,0.9,0,0,0-1.006-.965,1.761,1.761,0,0,0-1.283.579l-0.417-.736a2.7,2.7,0,0,1,1.894-.736,1.626,1.626,0,0,1,1.871,1.733v3.466H599.1Zm0-1.158v-0.765a1.128,1.128,0,0,0-.971-0.567,0.946,0.946,0,0,0,0,1.89,1.143,1.143,0,0,0,.971-0.558m2.728,0.022v-3.023H601.16v-0.911h0.672v-1.387H602.9v1.387h0.857v0.911H602.9v2.8c0,0.347.118,0.555,0.4,0.555a0.537,0.537,0,0,0,.407-0.168l0.256,0.79a1.293,1.293,0,0,1-.929.3,1.086,1.086,0,0,1-1.2-1.26m2.911-5.227a0.674,0.674,0,0,1,.674-0.662,0.658,0.658,0,1,1-.674.662m0.139,1.293h1.071v5.07h-1.071v-5.07Zm2.289,2.53c0-1.43.771-2.659,2.238-2.659s2.235,1.229,2.235,2.659-0.771,2.664-2.235,2.664-2.238-1.239-2.238-2.664m3.37,0c0-.916-0.352-1.734-1.132-1.734s-1.135.818-1.135,1.734,0.353,1.74,1.135,1.74,1.132-.825,1.132-1.74m5.181,2.54v-3.456a0.683,0.683,0,0,0-.739-0.818,1.276,1.276,0,0,0-1.05.7v3.57h-1.07v-5.07h1.07v0.678a1.907,1.907,0,0,1,1.5-.807,1.218,1.218,0,0,1,1.36,1.376v3.823h-1.068Z" transform="translate(-415 -40)"/>
  <path class="cls-2" d="M614.67,47.45A3.322,3.322,0,0,0,618,44.144a3.335,3.335,0,0,0-6.669,0,3.318,3.318,0,0,0,3.338,3.306m0-5.961a2.6,2.6,0,0,1,2.642,2.655,2.65,2.65,0,1,1-2.642-2.655m-0.648,4.375V44.5h0.826l0.689,1.366h0.716l-0.774-1.487a1.062,1.062,0,0,0-.468-2.025h-1.1a0.467,0.467,0,0,0-.538.488l0.007,3.024h0.64Zm0.01-2.956h0.927a0.464,0.464,0,0,1,.493.5,0.5,0.5,0,0,1-.527.522h-0.893V42.908ZM489.294,47.386c6.978,0,7.851,7.117,7.851,7.117l8.309-1.932c-0.05-.205-1.489-12.511-16.16-12.511-9.078,0-17.544,5.492-17.544,19.528,0,13.932,8.925,19.272,18.161,19.272a25.624,25.624,0,0,0,12.259-2.948c2-1.169,3.129-2.287,3.129-4.677V62.64c0-2.24-1.488-3.61-3.947-3.61H489.96v6.358h7.13v4.93A13.241,13.241,0,0,1,490.165,72c-4.666,0-9.541-2.8-9.541-12.411,0-9.408,4.258-12.2,8.67-12.2m36.938-7.376c-3.49,0-5.594,1.476-6.618,4.524L508.328,78.352l8.921,0a2.882,2.882,0,0,0,1.794-.8l10.739-10.517c0.223-.221.162-0.326-0.094-0.326l-1.452,0a3.323,3.323,0,0,0-1.694.447l-7.226,4.117L526.181,48.3s8.153,27.816,8.82,30.052h9.183L533.051,44.485c-0.923-2.844-3.279-4.474-6.819-4.474m36.883,7.272c6.975,0,7.9,7.628,7.9,7.628l8.311-1.73S578.1,40.06,563.115,40.06c-9.079,0-17.544,5.343-17.544,19.378,0,13.929,8.413,19.475,17.494,19.475,14.67,0,16.262-12.814,16.262-12.814l-8.311-1.78s-0.67,7.372-7.8,7.372c-4.41,0-8.721-2.8-8.721-12.252,0-9.412,4.206-12.156,8.618-12.156m36.221-7.272c-3.491,0-5.6,1.476-6.62,4.524L581.431,78.352l8.92,0a2.885,2.885,0,0,0,1.8-.8l10.741-10.517c0.222-.221.159-0.326-0.1-0.326l-1.452,0a3.327,3.327,0,0,0-1.7.447l-7.225,4.117L599.282,48.3s8.158,27.816,8.823,30.052h9.185L606.158,44.485c-0.927-2.844-3.284-4.474-6.822-4.474" transform="translate(-415 -40)"/>
  <path class="cls-3" d="M468.953,78.453h0a0.254,0.254,0,0,0,.23-0.269,0.282,0.282,0,0,0-.135-0.267A12.789,12.789,0,0,1,460.266,67.1l-2.113-14.891c-0.98-6.918-6.124-11.637-12.121-11.749l-30.8,0a0.22,0.22,0,0,0-.229.217,0.249,0.249,0,0,0,.135.263A12.857,12.857,0,0,1,423.918,51.8l2.111,14.891c0.983,6.892,6.122,11.637,12.118,11.774Zm-13.14-6.369-5.49,0a3.224,3.224,0,0,1-1.766-.344l-3.749-1.975,2.167-1.137,8.866,3.347C455.972,72.034,455.972,72.084,455.813,72.084Zm-4.346-15.7a0.085,0.085,0,0,1-.114.017,29.488,29.488,0,0,0-5.461-2.392c-0.235-.075-0.568-0.188-0.878-0.26v0c-0.134,6.149-.716,10.929-1.319,10.936s-1.185-4.787-1.318-10.936l0,0c-0.309.072-.642,0.185-0.877,0.26a29.488,29.488,0,0,0-5.461,2.392,0.085,0.085,0,0,1-.114-0.017,0.086,0.086,0,0,1-.016-0.043,1.979,1.979,0,0,1,.526-1.777,11.628,11.628,0,0,1,1.771-1.323,17.7,17.7,0,0,1,2.391-1.311c0.22-.1.5-0.227,0.712-0.315a24.657,24.657,0,0,0-4.326-1.87,0.068,0.068,0,0,1-.049-0.082,0.065,0.065,0,0,1,.021-0.031,1.725,1.725,0,0,1,1.4-.576,10.937,10.937,0,0,1,1.453.289c0.528,0.127,1.052.274,1.568,0.442,0.3,0.1.59,0.2,0.88,0.313l0.145,0.056c0.18-1.661.695-2.876,1.3-2.869s1.119,1.207,1.3,2.869l0.146-.056c0.29-.114.584-0.217,0.88-0.313q0.776-.251,1.568-0.442a10.937,10.937,0,0,1,1.453-.289,1.725,1.725,0,0,1,1.4.576,0.065,0.065,0,0,1,.021.031,0.067,0.067,0,0,1-.05.082,24.682,24.682,0,0,0-4.325,1.87c0.216,0.089.492,0.212,0.711,0.315a17.648,17.648,0,0,1,2.392,1.311,11.628,11.628,0,0,1,1.771,1.323,1.979,1.979,0,0,1,.526,1.777A0.086,0.086,0,0,1,451.467,56.382Zm-14.582,9.067,1.406-.008a1.66,1.66,0,0,1,.58.092l3.36,1.3-1.744.658-3.627-1.914C436.73,65.5,436.73,65.452,436.885,65.449Zm12.051,0.084,1.4,0.011c0.158,0,.158.055,0.028,0.13l-11.534,6.07a3.264,3.264,0,0,1-1.77.344l-5.488,0c-0.156,0-.156-0.05-0.026-0.1l16.807-6.349A1.575,1.575,0,0,1,448.936,65.534Z" transform="translate(-415 -40)"/>
</svg>
